<?xml version="1.0" encoding="UTF-8"?><svg id="b" xmlns="http://www.w3.org/2000/svg" viewBox="0 0 256 256"><path d="m 102.41407,110.70333 c -0.34257,-0.002 -0.68632,0.007 -1.02929,0.0273 -6.110771,0.2599 -11.890887,4.06104 -14.568364,9.55664 -2.131071,4.16623 -2.349738,9.18734 -0.791016,13.57227 l 29.4707,-17.01559 c -3.20664,-3.83014 -8.09284,-6.11867 -13.08203,-6.14062 z m 14.14453,7.51562 -29.867184,17.24414 c 0.237675,0.49923 0.501699,0.9855 0.789062,1.45899 l 29.947262,-17.29102 c -0.267,-0.4839 -0.55361,-0.95685 -0.86914,-1.41211 z m 2.6211,6.11524 -28.517581,16.46484 c 1.400573,1.2667 3.01233,2.29521 4.74414,3.04883 l 24.060551,-13.89258 c 0.20535,-1.87305 0.10791,-3.77813 -0.28711,-5.62109 z m 0.13281,6.70508 -22.890621,13.21484 c 0.30267,0.10997 0.6078,0.21347 0.91601,0.30664 l 21.781251,-12.57617 c 0.0735,-0.31361 0.1379,-0.6281 0.19336,-0.94531 z m -0.9668,3.38086 -18.519531,10.6914 c 1.313091,0.19285 2.646731,0.24068 3.974611,0.11133 6.21197,-0.46882 11.94023,-4.62528 14.36524,-10.35547 0.0651,-0.14703 0.11912,-0.29852 0.17968,-0.44726 z m 35.47852,-23.7168 c -0.34234,-0.002 -0.68464,0.007 -1.02734,0.0273 -6.11016,0.25992 -11.88614,4.06403 -14.56836,9.55469 -2.12969,4.16798 -2.34836,9.18856 -0.78907,13.57422 l 29.47071,-17.01563 c -3.20498,-3.83377 -8.09635,-6.11811 -13.08594,-6.14062 z m 14.14844,7.51562 -29.86719,17.24414 c 0.23774,0.49949 0.50159,0.98524 0.78906,1.45899 l 29.94727,-17.28906 c -0.2672,-0.48453 -0.55342,-0.95823 -0.86914,-1.41407 z m 2.62109,6.11524 -28.51758,16.46484 c 1.39998,1.26678 3.01082,2.29505 4.74219,3.04883 l 24.0625,-13.89453 c 0.20508,-1.87247 0.1082,-3.77664 -0.28711,-5.61914 z m 0.13281,6.70312 -22.89062,13.21485 c 0.30371,0.11037 0.60868,0.21515 0.91797,0.30859 l 21.78125,-12.57812 c 0.0734,-0.31324 0.13602,-0.62849 0.1914,-0.94532 z m -0.96875,3.38086 -18.51953,10.69336 c 1.2799,0.18774 2.58021,0.23759 3.875,0.11914 6.25354,-0.435 12.03705,-4.60754 14.47071,-10.37695 0.0634,-0.14328 0.11475,-0.29064 0.17382,-0.43555 z M 92.8379,56.509968 c -0.286248,0.0625 -0.542969,0.2575 -0.667969,0.5625 L 78.36915,91.293171 c -0.16,0.399988 -0.339297,0.799219 -0.529297,1.199219 -1.027748,2.221894 -4.723601,12.37791 7.140625,22.97266 -2.438248,3.37993 -3.838454,7.3973 -4.029297,11.56054 -4.28358,5.13551 -9.03605,9.86334 -13.93164,13.53711 -0.57,0.43 -0.629618,1.27977 -0.09961,1.75977 6.569968,5.82995 15.470052,9.40078 25.5,12.05078 6.469958,1.71 14.719379,5.5298 19.359379,14.50977 0.02,0.03 0.031,0.0696 0.041,0.0996 2.39,5.92998 -5.51036,10.56937 -11.57031,12.60937 -2.100001,0.71 -4.300871,1.2907 -6.630861,1.7207 -5.039974,1.2 -10.078536,2.40922 -15.478514,5.19922 -2.419986,1.26 -4.291106,3.36113 -5.371094,5.8711 l -2.189453,5.1289 H 185.41993 l -2.18945,-5.1289 c -1.08,-2.50997 -2.95114,-4.6111 -5.37109,-5.8711 -5.4,-2.79 -10.43857,-3.99922 -15.47852,-5.19922 -2.33,-0.43 -4.53086,-1.0207 -6.63086,-1.7207 -6.05995,-2.04 -13.96031,-6.67939 -11.57031,-12.60937 0.01,-0.03 0.021,-0.0696 0.041,-0.0996 5.1,-9.26997 12.8894,-12.79977 19.35938,-14.50977 10.02995,-2.65 18.93002,-6.22083 25.5,-12.05078 0.53,-0.48 0.47037,-1.32977 -0.0996,-1.75977 -4.86984,-3.65443 -9.59896,-8.35116 -13.86524,-13.45507 -0.17619,-4.20647 -1.58708,-8.26794 -4.05664,-11.67774 11.81615,-10.5819 8.12817,-20.718096 7.10157,-22.9375 -0.19,-0.4 -0.3693,-0.799231 -0.5293,-1.199219 L 163.83009,57.072468 c -0.25,-0.61 -1.02977,-0.780078 -1.50977,-0.330078 -2.15998,2.029987 -4.64125,4.589639 -9.28125,10.849609 0,0.08 -7.54836,10.091051 -10.56836,17.291016 -0.32,0.769998 -1.12117,1.219843 -1.95117,1.089843 -3.56998,-0.559995 -7.96953,-0.850312 -12.51953,-0.820312 -4.54998,-0.03 -8.94953,0.260317 -12.51953,0.820312 -0.83,0.13 -1.63117,-0.319845 -1.95117,-1.089843 -3.02,-7.199965 -10.56836,-17.211016 -10.56836,-17.291016 -4.639991,-6.25997 -7.121261,-8.819622 -9.281251,-10.849609 -0.24,-0.225 -0.555549,-0.294922 -0.841799,-0.232422 z m 9.45508,52.195312 c 10.65568,6.8e-4 19.29337,8.63924 19.29297,19.29492 -6.8e-4,10.65492 -8.63805,19.29229 -19.29297,19.29297 -10.655684,4e-4 -19.294243,-8.63729 -19.294923,-19.29297 -3.95e-4,-10.65644 8.638477,-19.29532 19.294923,-19.29492 z m 51.41211,0 c 10.65644,-4e-4 19.29532,8.63848 19.29492,19.29492 -6.8e-4,10.65568 -8.63924,19.29337 -19.29492,19.29297 -10.65492,-6.8e-4 -19.29229,-8.63805 -19.29297,-19.29297 -4e-4,-10.65568 8.63729,-19.29424 19.29297,-19.29492 z m -25.80469,43.20899 c 3.30998,-1.5e-4 6.659,0.15693 7.30274,0.4707 0.75716,0.80769 -2.64242,6.02243 -3.69336,6.48437 -0.62484,0.57525 -5.9918,0.57166 -7.15625,0 -1.00353,-0.3312 -4.39601,-5.8496 -3.52149,-6.48437 0.48761,-0.31316 3.75839,-0.47055 7.06836,-0.4707 z"/></svg>
